<svg version="1.1" id="Layer_1" xmlns="http://www.w3.org/2000/svg" xmlns:xlink="http://www.w3.org/1999/xlink" x="0px" y="0px"
	 width="100%" viewBox="0 0 2000 1500" enable-background="new 0 0 2000 1500" xml:space="preserve">

<path fill="#FF5858" opacity="1.000000" stroke="none" 
	d="
M1418.278076,379.195251 
	C1449.382446,378.113190 1480.035522,377.432434 1510.638428,375.804810 
	C1521.863037,375.207825 1532.960449,372.319458 1544.129272,370.561798 
	C1572.193237,366.145386 1600.288574,363.491730 1628.579956,368.723114 
	C1661.416260,374.794922 1687.383301,392.111389 1709.686035,416.399841 
	C1727.404541,435.696014 1734.690063,459.185669 1739.919067,483.805664 
	C1745.717163,511.105743 1747.306641,538.887146 1748.983887,566.638367 
	C1752.005981,616.637939 1747.557861,666.566040 1747.280640,716.536865 
	C1747.187378,733.361084 1746.820923,750.199402 1745.964600,766.999939 
	C1744.803223,789.783264 1742.961670,812.531006 1741.587769,835.304688 
	C1740.865601,847.274048 1740.271851,859.261414 1740.051025,871.248596 
	C1739.557007,898.072937 1739.664429,924.911438 1738.915527,951.727112 
	C1737.960449,985.922852 1734.969116,1019.950378 1723.804199,1052.571289 
	C1720.284546,1062.854980 1714.814453,1072.521240 1709.654175,1082.157959 
	C1708.378052,1084.541504 1705.052979,1086.573975 1702.284546,1087.300293 
	C1662.392212,1097.768188 1622.569214,1108.561401 1582.423828,1117.972534 
	C1566.813354,1121.632202 1550.474121,1122.417969 1534.408203,1123.858276 
	C1472.608032,1129.399658 1410.642822,1130.067383 1348.650024,1129.580078 
	C1294.163940,1129.151855 1239.676514,1128.184692 1185.192871,1128.375366 
	C1143.057007,1128.522705 1100.953857,1130.383423 1058.967529,1134.575317 
	C1050.503540,1135.420166 1041.764893,1132.981445 1033.142212,1132.868042 
	C1006.679626,1132.519775 980.207397,1132.209351 953.747437,1132.549927 
	C921.937988,1132.959229 890.138123,1134.099243 858.330139,1134.719971 
	C856.655823,1134.752808 854.371277,1133.298218 853.352661,1131.846802 
	C849.528931,1126.398315 847.198181,1125.434570 842.617371,1129.846313 
	C836.406311,1135.828125 829.826050,1135.072266 822.756042,1132.592651 
	C817.274719,1130.670288 811.937622,1127.806152 806.304871,1127.019897 
	C802.084900,1126.430908 796.795654,1127.364014 793.223816,1129.601074 
	C786.639587,1133.725220 779.979980,1135.099487 772.772156,1133.313965 
	C766.664673,1131.800903 760.697021,1129.611816 754.804810,1127.362183 
	C736.288818,1120.292480 730.542297,1121.117676 714.969727,1134.039917 
	C713.910706,1130.485596 712.959167,1127.267944 711.993042,1124.054688 
	C710.275085,1118.341064 708.744019,1112.560791 706.751465,1106.944336 
	C705.566467,1103.604248 703.395020,1102.862427 701.113953,1106.315552 
	C699.553772,1108.677612 698.060486,1111.085327 696.446960,1113.409912 
	C695.805603,1114.333862 694.969238,1115.752441 694.138062,1115.813721 
	C688.187805,1116.252930 688.978760,1120.512451 689.260681,1124.283447 
	C689.517273,1127.716309 690.226013,1131.115356 690.765198,1134.728638 
	C686.570862,1135.154053 684.844727,1132.521973 684.009033,1129.735840 
	C681.482666,1121.312622 679.377563,1112.764038 677.038452,1104.283569 
	C676.067505,1100.763428 675.190247,1097.171631 673.715271,1093.859497 
	C673.145020,1092.578979 670.183228,1090.922974 669.772766,1091.253418 
	C667.650330,1092.962524 665.831421,1095.150635 664.353699,1097.458008 
	C664.106201,1097.844360 665.824402,1100.167480 667.027039,1100.687744 
	C672.235107,1102.941040 669.896729,1107.238892 669.707336,1110.655273 
	C669.519043,1114.051147 667.335327,1115.359375 663.657043,1114.336670 
	C662.865051,1114.116455 660.623352,1116.443726 660.268188,1117.895630 
	C659.607422,1120.596558 660.538147,1123.799561 659.530884,1126.274658 
	C658.251160,1129.419189 656.229370,1133.008545 653.488647,1134.510864 
	C652.020386,1135.315796 648.311523,1132.247681 645.740540,1130.714722 
	C644.795593,1130.151367 644.226990,1128.966309 643.467346,1128.081299 
	C638.027405,1121.744507 637.664001,1121.629028 629.299011,1124.016235 
	C629.299011,1118.257324 629.299011,1112.707397 629.299011,1107.157471 
	C628.725891,1106.789673 628.152832,1106.421875 627.579712,1106.053955 
	C624.112244,1108.893188 620.245361,1111.374390 617.289795,1114.672241 
	C614.342407,1117.961060 611.776306,1118.238159 607.798096,1116.743652 
	C583.918335,1107.772461 559.057800,1102.998657 533.670654,1102.116211 
	C502.710022,1101.040039 471.707153,1101.221802 440.725098,1100.708862 
	C405.316498,1100.122681 370.228973,1097.322144 336.517395,1085.183594 
	C310.820770,1075.931030 287.909058,1062.069092 267.246246,1044.283203 
	C264.130127,1041.600952 264.652100,1038.595337 265.412079,1035.697632 
	C266.672821,1030.890991 268.454071,1026.201294 270.285736,1021.568848 
	C272.531921,1015.887939 273.411530,1010.885620 267.484253,1006.485168 
	C265.755127,1005.201477 264.791351,1001.695251 264.924652,999.287903 
	C265.786621,983.724304 261.750549,968.912292 258.576263,953.951538 
	C256.508331,944.205078 256.125916,934.494019 259.227600,924.827148 
	C259.623566,923.593018 259.492065,921.823730 258.882416,920.691345 
	C254.376556,912.323059 254.619278,903.814819 257.541168,895.067444 
	C259.593445,888.923523 261.786011,882.785461 263.198151,876.484009 
	C264.049744,872.683838 263.953583,868.528992 263.524170,864.616760 
	C262.836487,858.351318 264.780823,855.041382 271.042358,854.200562 
	C273.616150,853.854858 276.366791,854.183228 278.946564,854.677307 
	C282.733856,855.402588 285.152557,854.068237 286.354126,850.552368 
	C287.048981,848.519226 287.735474,846.401306 287.898041,844.281067 
	C289.278717,826.276672 299.418823,815.489075 315.984589,810.001343 
	C321.348846,808.224426 326.824249,806.785278 332.209320,805.067871 
	C334.526672,804.328796 336.743561,803.274536 338.769653,802.458679 
	C335.247223,787.848572 331.471649,773.892822 328.571381,759.757446 
	C324.277496,738.829895 325.090332,718.002380 332.114532,697.681763 
	C333.318512,694.198792 332.692627,691.753296 329.950531,689.944214 
	C326.930328,687.951660 323.775848,685.800415 320.363831,684.833313 
	C310.937500,682.161316 305.360107,676.068542 302.567383,666.958801 
	C302.055267,665.288269 301.187317,663.726807 300.235504,661.546631 
	C298.269073,662.929138 296.835205,663.972229 295.365662,664.962402 
	C293.002289,666.555054 290.962799,666.371216 290.855408,663.168762 
	C289.884216,634.217712 277.254395,608.543579 268.491974,581.733215 
	C262.411621,563.129272 256.807953,544.225708 253.004898,525.056519 
	C247.846176,499.054199 258.901886,479.039185 282.858826,466.720825 
	C299.655212,458.084442 317.929810,454.458344 336.252808,450.960785 
	C346.706146,448.965424 357.554108,447.967072 367.468079,444.411194 
	C401.237854,432.298798 436.512207,427.340729 471.627106,422.192352 
	C512.935547,416.135986 554.466248,411.286072 596.043457,407.470184 
	C629.687744,404.382355 663.525757,402.633759 697.309753,402.005096 
	C760.943848,400.820892 824.603699,400.275665 888.247986,400.558563 
	C970.560364,400.924438 1052.866333,402.759430 1135.178467,403.080261 
	C1158.086426,403.169586 1181.026245,400.380341 1203.915405,398.477325 
	C1226.475952,396.601624 1248.988770,394.155792 1271.525879,391.995789 
	C1297.543945,389.502167 1323.555908,386.937012 1349.589233,384.612701 
	C1368.660889,382.909943 1387.762451,381.542572 1406.851318,380.033234 
	C1410.501709,379.744598 1414.155151,379.491089 1418.278076,379.195251 
M709.500000,465.967316 
	C661.004272,465.967316 612.508484,465.925232 564.012878,466.012482 
	C556.697571,466.025635 549.307495,466.087830 542.081665,467.075562 
	C511.463348,471.260834 487.444305,485.559601 473.403992,513.963196 
	C465.816010,529.313660 463.157990,545.952820 463.147186,562.928223 
	C463.070862,683.085693 463.045868,803.243286 463.203583,923.400513 
	C463.227875,941.903320 465.196259,960.269470 469.985199,978.266174 
	C477.575073,1006.788696 495.194366,1025.107178 524.310303,1031.247437 
	C534.184448,1033.329712 544.395020,1034.790405 554.459778,1034.837280 
	C621.286499,1035.148071 688.115356,1035.079224 754.943298,1034.957397 
	C781.700012,1034.908691 808.039490,1031.531616 833.832153,1024.114380 
	C880.369446,1010.731567 917.979309,985.497559 942.390991,942.699829 
	C959.938171,911.936646 967.027283,878.835754 962.748291,843.692993 
	C958.345947,807.536499 939.839417,779.232178 911.750122,756.855591 
	C903.886658,750.591309 895.464722,745.028137 887.056885,738.968750 
	C888.471985,737.883301 889.749390,736.856750 891.073608,735.894775 
	C913.245178,719.788879 930.224243,699.815063 937.502502,672.803284 
	C943.065857,652.156128 944.134521,631.121033 942.194824,609.884155 
	C939.288025,578.058838 926.969971,550.389526 904.909546,527.317932 
	C868.313171,489.044098 822.309570,471.104065 770.440186,467.173309 
	C750.543884,465.665558 730.484863,466.305786 709.500000,465.967316 
M1150.189697,466.136017 
	C1136.552856,466.077271 1122.832764,465.029510 1109.296387,466.166595 
	C1081.487305,468.502716 1061.047363,481.983551 1050.455322,508.676270 
	C1044.110596,524.665588 1041.028442,541.361816 1041.002441,558.426514 
	C1040.814819,681.571167 1040.700562,804.716736 1041.080200,927.860352 
	C1041.125000,942.381531 1043.274536,957.108521 1046.247314,971.365051 
	C1052.944336,1003.481995 1071.608887,1025.077026 1104.487915,1032.634033 
	C1122.567383,1036.789429 1140.840210,1037.077026 1159.070923,1033.890259 
	C1192.876831,1027.980835 1216.535400,1009.712097 1227.575806,976.533386 
	C1232.977783,960.299255 1235.701294,943.523926 1235.909668,926.490845 
	C1236.321289,892.834656 1236.178467,859.171631 1236.263916,825.511475 
	C1236.268799,823.570984 1236.264526,821.630432 1236.264526,819.645935 
	C1237.569092,819.408997 1238.201050,819.188599 1238.830811,819.195312 
	C1256.983398,819.387817 1275.158569,819.108948 1293.282593,819.940186 
	C1315.818481,820.973816 1329.856323,832.693115 1336.244873,854.408203 
	C1341.538208,872.400391 1343.814087,890.905029 1344.896240,909.521423 
	C1345.988037,928.304443 1346.104736,947.142090 1347.014526,965.938110 
	C1348.575317,998.178101 1365.776245,1020.686035 1396.613281,1029.889771 
	C1424.648926,1038.257324 1453.138794,1037.276001 1481.680054,1032.265381 
	C1508.796753,1027.504761 1524.783325,1010.943420 1530.858521,984.868652 
	C1534.052368,971.160400 1536.035400,957.058289 1537.228882,943.020508 
	C1539.288574,918.795227 1540.798828,894.422058 1535.984497,870.322693 
	C1525.856567,819.625549 1495.749878,785.615051 1448.081909,766.753967 
	C1441.965698,764.333984 1435.329468,763.228882 1428.756470,761.467102 
	C1445.732910,758.620056 1460.521240,751.633179 1473.316040,740.135010 
	C1499.577759,716.534729 1515.313232,686.763306 1523.986694,652.937134 
	C1529.757080,630.432922 1532.309448,607.499084 1533.371948,584.318542 
	C1534.343872,563.116577 1533.966309,542.063171 1530.015991,521.133972 
	C1524.779053,493.388000 1509.790039,475.018250 1481.235596,469.134735 
	C1459.662354,464.689606 1437.933472,463.949768 1416.135742,466.410858 
	C1407.915283,467.338959 1399.668335,469.027496 1391.743530,471.403107 
	C1361.518677,480.463409 1343.606934,504.193359 1342.026733,537.182983 
	C1340.775879,563.293701 1340.692017,589.480591 1338.704712,615.527954 
	C1337.535522,630.848938 1334.642944,646.220642 1330.745483,661.103333 
	C1326.262329,678.222717 1314.298584,688.987610 1296.765015,692.695374 
	C1285.567139,695.063416 1274.168579,695.066284 1263.035645,692.425659 
	C1234.737427,685.713440 1230.789429,671.713074 1231.198975,652.597717 
	C1231.877075,620.948730 1232.139893,589.282898 1231.960571,557.627625 
	C1231.895874,546.206726 1230.885620,534.645020 1228.848511,523.411987 
	C1224.694092,500.505432 1212.058105,484.098328 1189.798706,475.438171 
	C1177.261230,470.560394 1164.397339,467.647034 1150.189697,466.136017 
z"/>
<path fill="#FFFFFF" opacity="1.000000" stroke="none" 
	d="
M710.000000,465.967285 
	C730.484863,466.305786 750.543884,465.665558 770.440186,467.173309 
	C822.309570,471.104065 868.313171,489.044098 904.909546,527.317932 
	C926.969971,550.389526 939.288025,578.058838 942.194824,609.884155 
	C944.134521,631.121033 943.065857,652.156128 937.502502,672.803284 
	C930.224243,699.815063 913.245178,719.788879 891.073608,735.894775 
	C889.749390,736.856750 888.471985,737.883301 887.056885,738.968750 
	C895.464722,745.028137 903.886658,750.591309 911.750122,756.855591 
	C939.839417,779.232178 958.345947,807.536499 962.748291,843.692993 
	C967.027283,878.835754 959.938171,911.936646 942.390991,942.699829 
	C917.979309,985.497559 880.369446,1010.731567 833.832153,1024.114380 
	C808.039490,1031.531616 781.700012,1034.908691 754.943298,1034.957397 
	C688.115356,1035.079224 621.286499,1035.148071 554.459778,1034.837280 
	C544.395020,1034.790405 534.184448,1033.329712 524.310303,1031.247437 
	C495.194366,1025.107178 477.575073,1006.788696 469.985199,978.266174 
	C465.196259,960.269470 463.227875,941.903320 463.203583,923.400513 
	C463.045868,803.243286 463.070862,683.085693 463.147186,562.928223 
	C463.157990,545.952820 465.816010,529.313660 473.403992,513.963196 
	C487.444305,485.559601 511.463348,471.260834 542.081665,467.075562 
	C549.307495,466.087830 556.697571,466.025635 564.012878,466.012482 
	C612.508484,465.925232 661.004272,465.967316 710.000000,465.967285 
M780.992188,871.381226 
	C781.945068,861.814636 783.920410,852.218445 783.644165,842.687439 
	C783.013977,820.943604 773.535278,803.854309 753.590027,793.896606 
	C746.208252,790.211182 738.329163,787.169922 730.348083,785.106750 
	C710.898315,780.078857 690.913940,779.048462 670.903687,778.741028 
	C665.979065,778.665344 661.052307,778.729736 656.117554,778.729736 
	C656.117554,826.762451 656.117554,874.493652 656.117554,922.824707 
	C668.778564,922.189575 681.076660,921.907104 693.312012,920.878540 
	C710.600464,919.425110 727.602051,916.353516 743.893066,910.037842 
	C761.987305,903.023193 775.093628,891.216370 780.992188,871.381226 
M721.218567,570.156067 
	C699.729614,566.339600 678.066711,565.024963 656.082214,565.096436 
	C656.082214,607.830383 656.082214,650.019104 656.082214,691.935791 
	C664.529663,691.935791 672.663025,692.313416 680.749146,691.856323 
	C697.039307,690.935486 713.218689,689.123169 728.867065,684.033264 
	C760.408325,673.773743 775.138062,652.527710 772.849060,619.534241 
	C771.379700,598.354858 761.242554,583.054199 740.692017,575.774536 
	C734.600159,573.616577 728.270813,572.129211 721.218567,570.156067 
z"/>
<path fill="#FFFFFF" opacity="1.000000" stroke="none" 
	d="
M1150.649658,466.175659 
	C1164.397339,467.647034 1177.261230,470.560394 1189.798706,475.438171 
	C1212.058105,484.098328 1224.694092,500.505432 1228.848511,523.411987 
	C1230.885620,534.645020 1231.895874,546.206726 1231.960571,557.627625 
	C1232.139893,589.282898 1231.877075,620.948730 1231.198975,652.597717 
	C1230.789429,671.713074 1234.737427,685.713440 1263.035645,692.425659 
	C1274.168579,695.066284 1285.567139,695.063416 1296.765015,692.695374 
	C1314.298584,688.987610 1326.262329,678.222717 1330.745483,661.103333 
	C1334.642944,646.220642 1337.535522,630.848938 1338.704712,615.527954 
	C1340.692017,589.480591 1340.775879,563.293701 1342.026733,537.182983 
	C1343.606934,504.193359 1361.518677,480.463409 1391.743530,471.403107 
	C1399.668335,469.027496 1407.915283,467.338959 1416.135742,466.410858 
	C1437.933472,463.949768 1459.662354,464.689606 1481.235596,469.134735 
	C1509.790039,475.018250 1524.779053,493.388000 1530.015991,521.133972 
	C1533.966309,542.063171 1534.343872,563.116577 1533.371948,584.318542 
	C1532.309448,607.499084 1529.757080,630.432922 1523.986694,652.937134 
	C1515.313232,686.763306 1499.577759,716.534729 1473.316040,740.135010 
	C1460.521240,751.633179 1445.732910,758.620056 1428.756470,761.467102 
	C1435.329468,763.228882 1441.965698,764.333984 1448.081909,766.753967 
	C1495.749878,785.615051 1525.856567,819.625549 1535.984497,870.322693 
	C1540.798828,894.422058 1539.288574,918.795227 1537.228882,943.020508 
	C1536.035400,957.058289 1534.052368,971.160400 1530.858521,984.868652 
	C1524.783325,1010.943420 1508.796753,1027.504761 1481.680054,1032.265381 
	C1453.138794,1037.276001 1424.648926,1038.257324 1396.613281,1029.889771 
	C1365.776245,1020.686035 1348.575317,998.178101 1347.014526,965.938110 
	C1346.104736,947.142090 1345.988037,928.304443 1344.896240,909.521423 
	C1343.814087,890.905029 1341.538208,872.400391 1336.244873,854.408203 
	C1329.856323,832.693115 1315.818481,820.973816 1293.282593,819.940186 
	C1275.158569,819.108948 1256.983398,819.387817 1238.830811,819.195312 
	C1238.201050,819.188599 1237.569092,819.408997 1236.264526,819.645935 
	C1236.264526,821.630432 1236.268799,823.570984 1236.263916,825.511475 
	C1236.178467,859.171631 1236.321289,892.834656 1235.909668,926.490845 
	C1235.701294,943.523926 1232.977783,960.299255 1227.575806,976.533386 
	C1216.535400,1009.712097 1192.876831,1027.980835 1159.070923,1033.890259 
	C1140.840210,1037.077026 1122.567383,1036.789429 1104.487915,1032.634033 
	C1071.608887,1025.077026 1052.944336,1003.481995 1046.247314,971.365051 
	C1043.274536,957.108521 1041.125000,942.381531 1041.080200,927.860352 
	C1040.700562,804.716736 1040.814819,681.571167 1041.002441,558.426514 
	C1041.028442,541.361816 1044.110596,524.665588 1050.455322,508.676270 
	C1061.047363,481.983551 1081.487305,468.502716 1109.296387,466.166595 
	C1122.832764,465.029510 1136.552856,466.077271 1150.649658,466.175659 
z"/>
<path fill="#FF5858" opacity="1.000000" stroke="none" 
	d="
M780.901245,871.775391 
	C775.093628,891.216370 761.987305,903.023193 743.893066,910.037842 
	C727.602051,916.353516 710.600464,919.425110 693.312012,920.878540 
	C681.076660,921.907104 668.778564,922.189575 656.117554,922.824707 
	C656.117554,874.493652 656.117554,826.762451 656.117554,778.729736 
	C661.052307,778.729736 665.979065,778.665344 670.903687,778.741028 
	C690.913940,779.048462 710.898315,780.078857 730.348083,785.106750 
	C738.329163,787.169922 746.208252,790.211182 753.590027,793.896606 
	C773.535278,803.854309 783.013977,820.943604 783.644165,842.687439 
	C783.920410,852.218445 781.945068,861.814636 780.901245,871.775391 
z"/>
<path fill="#FF5959" opacity="1.000000" stroke="none" 
	d="
M721.634399,570.245361 
	C728.270813,572.129211 734.600159,573.616577 740.692017,575.774536 
	C761.242554,583.054199 771.379700,598.354858 772.849060,619.534241 
	C775.138062,652.527710 760.408325,673.773743 728.867065,684.033264 
	C713.218689,689.123169 697.039307,690.935486 680.749146,691.856323 
	C672.663025,692.313416 664.529663,691.935791 656.082214,691.935791 
	C656.082214,650.019104 656.082214,607.830383 656.082214,565.096436 
	C678.066711,565.024963 699.729614,566.339600 721.634399,570.245361 
z"/>
</svg>